# xmcd
#
# Track frame offsets:
#	150
#	17479
#	35509
#	54590
#	73376
#	87951
#	99243
#	116597
#	137277
#	154830
#	169166
#	186735
#	201485
#	217868
#
# Disc length: 3116 seconds
#
# Revision: 0
# Processed by: cddbd v1.5.2PL0 Copyright (c) Steve Scherf et al.
# Submitted via: FairStars CD Ripper 1.90
#
DISCID=c50c2a0e
DTITLE=Miscellaneous - Hell Bent and Country Bound Vol II
DYEAR=2012
DGENRE=Texas Country
TTITLE0=Bart Crow Band - Wear My Ring
TTITLE1=Brandon Jenkins - My Feet Don't Touch the Ground
TTITLE2=Charlie Shafter - Not My Girl
TTITLE3=Cory Morrow - Nashville Blues
TTITLE4=Jackson Taylor - Back On the Bottle
TTITLE5=Micky and the Motorcars - Guts
TTITLE6=No Justice - The Toast
TTITLE7=Randy Rogers Band - I Miss You With Me
TTITLE8=Whiskey Myers - Summer 2005
TTITLE9=Matt Powell - $50 and a Flask of Crown
TTITLE10=Stoney LaRue - Downtown
TTITLE11=Wade Bowen - Keep Hangin' On
TTITLE12=Kyle Park - Don't Look
TTITLE13=Jason Cassidy - What Do You Have for a Heartache
EXTD=
EXTT0=
EXTT1=
EXTT2=
EXTT3=
EXTT4=
EXTT5=
EXTT6=
EXTT7=
EXTT8=
EXTT9=
EXTT10=
EXTT11=
EXTT12=
EXTT13=
PLAYORDER=
